<?xml version="1.0" standalone="no"?>
<!DOCTYPE svg PUBLIC "-//W3C//DTD SVG 20010904//EN"
 "http://www.w3.org/TR/2001/REC-SVG-20010904/DTD/svg10.dtd">
<svg version="1.0" xmlns="http://www.w3.org/2000/svg"
 width="512.000000pt" height="512.000000pt" viewBox="0 0 512.000000 512.000000"
 preserveAspectRatio="xMidYMid meet">

<g transform="translate(0.000000,512.000000) scale(0.100000,-0.100000)"
fill="#000000" stroke="none">
<path d="M1785 4176 c-63 -28 -95 -87 -95 -173 l0 -43 -140 0 c-135 0 -140 1
-140 21 0 11 -9 34 -21 50 -38 54 -61 59 -251 59 -196 0 -223 -8 -255 -75
l-17 -35 -77 0 c-43 0 -90 -5 -106 -11 -60 -22 -113 -95 -113 -154 l0 -25
-135 0 c-122 0 -137 -2 -155 -20 -25 -25 -25 -45 0 -70 18 -18 33 -20 155 -20
l135 0 0 -24 c0 -101 87 -165 223 -166 71 0 78 -2 86 -22 10 -26 45 -60 78
-77 13 -7 83 -11 183 -11 131 0 169 3 197 17 37 17 73 65 73 96 0 15 13 17
140 17 139 0 140 0 140 -22 0 -47 22 -98 55 -130 33 -31 35 -36 35 -102 0 -88
15 -136 58 -186 61 -72 96 -84 264 -88 l146 -4 12 -47 c15 -61 50 -104 103
-130 42 -20 57 -21 490 -21 l447 0 0 -70 c0 -81 21 -132 70 -173 43 -37 89
-47 213 -47 l107 0 0 -200 c0 -177 2 -205 19 -238 35 -69 88 -99 190 -108 l71
-7 0 -241 c1 -148 6 -269 13 -313 l13 -72 -45 -6 c-124 -17 -152 -26 -191 -65
-85 -85 -61 -244 43 -294 31 -14 83 -16 405 -16 238 0 381 4 399 11 129 48
196 281 235 814 17 242 15 1089 -6 1625 -14 380 -20 455 -36 512 -42 141 -168
255 -318 287 -84 18 -2657 15 -2697 -3z m465 -426 l0 -330 -199 0 c-110 0
-211 4 -225 10 l-26 10 0 308 c0 226 3 311 12 320 9 9 73 12 225 12 l213 0 0
-330z m2260 311 c77 -29 134 -82 171 -157 36 -73 32 -7 58 -799 14 -395 14
-1036 1 -1275 -24 -418 -75 -695 -141 -766 l-22 -24 -368 0 c-403 0 -385 -3
-396 63 -9 59 22 80 137 95 148 20 170 43 146 152 -14 59 -16 161 -16 683 0
710 2 689 -83 772 -33 32 -68 55 -95 63 -33 10 -202 13 -753 12 -762 0 -752
-1 -779 49 -6 13 -10 217 -10 585 l0 566 1050 0 c1012 0 1052 -1 1100 -19z
m-3212 -83 c9 -9 12 -77 12 -245 l0 -233 -27 -11 c-16 -6 -84 -9 -161 -7 -105
2 -135 6 -142 18 -5 8 -10 115 -10 237 0 188 2 224 16 237 13 13 42 16 158 16
97 0 146 -4 154 -12z m-428 -243 l0 -135 -78 0 c-105 0 -115 10 -118 123 -2
83 7 125 29 139 7 4 47 8 90 8 l77 0 0 -135z m820 0 l0 -115 -135 0 -135 0 0
115 0 115 135 0 135 0 0 -115z m560 -531 l0 -115 -144 3 c-145 3 -145 3 -175
32 -17 17 -36 46 -41 65 -11 41 -13 114 -3 124 3 4 87 7 185 7 l178 0 0 -116z
m1647 -450 c15 -11 38 -36 51 -54 22 -32 22 -38 22 -341 l0 -309 -61 0 c-54 0
-64 3 -90 29 l-29 29 0 228 c0 198 -2 230 -17 246 -14 16 -33 18 -164 18 -141
0 -149 1 -175 24 -24 20 -28 32 -32 90 l-4 67 235 -3 c221 -3 237 -4 264 -24z"/>
<path d="M2700 3942 c-35 -11 -40 -33 -40 -197 0 -175 8 -205 55 -205 47 0 55
30 55 205 0 164 -4 185 -40 197 -8 3 -22 3 -30 0z"/>
<path d="M3166 3885 c-14 -15 -16 -60 -16 -399 0 -292 3 -386 13 -399 11 -17
46 -18 482 -15 l470 3 55 27 c172 84 271 267 241 441 -24 143 -111 259 -238
320 l-68 32 -461 3 c-414 3 -463 1 -478 -13z m909 -100 c65 -17 134 -62 173
-112 l25 -33 -106 0 c-58 0 -117 -4 -131 -10 -34 -12 -44 -54 -21 -80 16 -18
32 -20 157 -20 l138 0 0 -45 0 -45 -135 0 c-122 0 -137 -2 -155 -20 -24 -24
-25 -39 -6 -66 12 -16 31 -20 138 -24 l123 -5 -48 -51 c-28 -30 -70 -62 -100
-75 -52 -24 -56 -24 -459 -27 l-408 -3 0 316 0 315 378 0 c307 0 389 -3 437
-15z"/>
<path d="M2680 3410 c-18 -18 -20 -33 -20 -185 0 -152 2 -167 20 -185 11 -11
27 -20 35 -20 8 0 24 9 35 20 18 18 20 33 20 185 0 152 -2 167 -20 185 -11 11
-27 20 -35 20 -8 0 -24 -9 -35 -20z"/>
<path d="M4325 2512 c-182 -86 -127 -352 72 -352 59 0 107 24 147 74 24 29 31
49 34 96 4 50 0 66 -22 104 -48 82 -149 116 -231 78z m124 -109 c11 -10 24
-32 27 -50 5 -27 1 -37 -25 -64 -27 -26 -37 -30 -64 -25 -64 12 -89 86 -45
133 26 28 77 31 107 6z"/>
</g>
</svg>
