<?xml version="1.0" standalone="no"?>
<!DOCTYPE svg PUBLIC "-//W3C//DTD SVG 20010904//EN"
 "http://www.w3.org/TR/2001/REC-SVG-20010904/DTD/svg10.dtd">
<svg version="1.0" xmlns="http://www.w3.org/2000/svg"
 width="512.000000pt" height="512.000000pt" viewBox="0 0 512.000000 512.000000"
 preserveAspectRatio="xMidYMid meet">

<g transform="translate(0.000000,512.000000) scale(0.100000,-0.100000)"
fill="#000000" stroke="none">
<path d="M1340 4801 c-46 -14 -105 -49 -132 -78 -23 -25 -1088 -1856 -1175
-2021 -30 -57 -33 -72 -33 -145 0 -58 6 -94 19 -122 38 -83 1164 -2021 1189
-2048 15 -16 50 -41 77 -55 l50 -27 1194 -3 c1355 -3 1265 -8 1350 76 38 37
166 253 621 1042 316 547 582 1016 592 1043 23 59 22 117 0 182 -22 61 -1164
2040 -1198 2076 -14 15 -49 40 -77 55 l-52 29 -737 3 -737 2 -33 -29 c-27 -24
-33 -36 -33 -71 0 -35 6 -47 33 -71 l32 -29 713 0 c659 0 714 -2 733 -18 21
-17 1147 -1958 1167 -2013 9 -22 8 -36 -6 -63 -42 -88 -1141 -1983 -1159
-1998 -19 -17 -90 -18 -1188 -18 -1098 0 -1169 1 -1188 17 -18 16 -1118 1913
-1159 1999 -14 27 -15 41 -6 63 13 35 1140 1991 1158 2010 8 8 37 17 67 22 38
6 59 16 76 34 24 28 29 82 12 116 -23 41 -103 60 -170 40z"/>
<path d="M1808 4781 c-27 -24 -33 -36 -33 -71 0 -35 6 -47 34 -72 29 -26 39
-30 75 -25 52 7 86 44 86 93 0 46 -14 70 -50 89 -43 22 -76 18 -112 -14z"/>
<path d="M2320 3936 c-449 -80 -820 -356 -1024 -763 -86 -173 -132 -348 -142
-548 -32 -601 324 -1150 893 -1376 313 -124 725 -120 1033 10 88 37 109 60
110 118 0 34 -5 46 -31 67 -35 29 -84 34 -127 12 -50 -25 -182 -65 -269 -82
-112 -21 -314 -21 -426 0 -506 95 -896 497 -972 1003 -85 565 244 1113 785
1308 175 63 424 83 611 50 446 -78 814 -412 942 -855 72 -249 56 -540 -44
-782 -38 -91 -37 -112 5 -154 37 -37 70 -43 115 -20 33 18 78 112 115 243 43
150 50 210 50 393 0 141 -5 194 -22 272 -122 556 -532 969 -1085 1093 -98 23
-414 29 -517 11z"/>
<path d="M2351 3535 c-208 -47 -377 -142 -522 -292 -119 -123 -203 -274 -251
-451 -30 -112 -31 -364 0 -474 117 -425 457 -718 880 -757 166 -15 354 16 508
84 143 63 318 212 411 350 272 405 216 942 -134 1276 -93 89 -144 125 -251
179 -144 71 -234 92 -417 96 -114 3 -178 -1 -224 -11z m451 -222 c257 -90 445
-289 520 -550 32 -111 32 -305 0 -416 -91 -320 -364 -553 -686 -586 -393 -40
-749 203 -858 586 -32 111 -32 305 0 416 69 241 236 432 463 528 114 49 177
59 334 55 126 -2 149 -6 227 -33z"/>
<path d="M3399 1701 c-88 -89 43 -219 138 -137 23 20 28 32 28 71 0 39 -5 51
-28 71 -41 35 -99 33 -138 -5z"/>
</g>
</svg>
